<mxfile host="app.diagrams.net" modified="2020-12-30T05:52:55.956Z" agent="5.0 (Windows NT 6.3; Win64; x64) AppleWebKit/537.36 (KHTML, like Gecko) Chrome/87.0.4280.88 Safari/537.36" etag="Vs2nl-Qvn16lcwo5DdA2" version="14.1.3" type="github">
  <diagram id="PYtqz0jJLVaQwFEC9LmB" name="Page-1">
    <mxGraphModel dx="1800" dy="750" grid="0" gridSize="10" guides="1" tooltips="1" connect="1" arrows="1" fold="1" page="1" pageScale="1" pageWidth="850" pageHeight="1100" math="0" shadow="0">
      <root>
        <mxCell id="0" />
        <mxCell id="1" parent="0" />
        <mxCell id="cX_QqQjDj7oF1QqufWb9-50" style="edgeStyle=orthogonalEdgeStyle;rounded=0;orthogonalLoop=1;jettySize=auto;html=1;exitX=0.5;exitY=1;exitDx=0;exitDy=0;entryX=0.5;entryY=0;entryDx=0;entryDy=0;" edge="1" parent="1" source="cX_QqQjDj7oF1QqufWb9-2" target="cX_QqQjDj7oF1QqufWb9-5">
          <mxGeometry relative="1" as="geometry" />
        </mxCell>
        <mxCell id="cX_QqQjDj7oF1QqufWb9-2" value="" style="ellipse;whiteSpace=wrap;html=1;labelBackgroundColor=none;fillColor=#dae8fc;strokeColor=#6c8ebf;" vertex="1" parent="1">
          <mxGeometry x="509" y="107" width="30" height="30" as="geometry" />
        </mxCell>
        <mxCell id="cX_QqQjDj7oF1QqufWb9-51" style="edgeStyle=none;rounded=0;orthogonalLoop=1;jettySize=auto;html=1;exitX=0.5;exitY=1;exitDx=0;exitDy=0;entryX=0.5;entryY=0;entryDx=0;entryDy=0;" edge="1" parent="1" source="cX_QqQjDj7oF1QqufWb9-4" target="cX_QqQjDj7oF1QqufWb9-8">
          <mxGeometry relative="1" as="geometry" />
        </mxCell>
        <mxCell id="cX_QqQjDj7oF1QqufWb9-92" style="edgeStyle=none;rounded=0;orthogonalLoop=1;jettySize=auto;html=1;exitX=0.5;exitY=1;exitDx=0;exitDy=0;entryX=0.5;entryY=0;entryDx=0;entryDy=0;" edge="1" parent="1" source="cX_QqQjDj7oF1QqufWb9-4" target="cX_QqQjDj7oF1QqufWb9-74">
          <mxGeometry relative="1" as="geometry" />
        </mxCell>
        <mxCell id="cX_QqQjDj7oF1QqufWb9-4" value="2" style="ellipse;whiteSpace=wrap;html=1;" vertex="1" parent="1">
          <mxGeometry x="509" y="227" width="30" height="30" as="geometry" />
        </mxCell>
        <mxCell id="cX_QqQjDj7oF1QqufWb9-25" style="edgeStyle=orthogonalEdgeStyle;rounded=0;orthogonalLoop=1;jettySize=auto;html=1;exitX=0.5;exitY=1;exitDx=0;exitDy=0;entryX=0.5;entryY=0;entryDx=0;entryDy=0;" edge="1" parent="1" source="cX_QqQjDj7oF1QqufWb9-5" target="cX_QqQjDj7oF1QqufWb9-4">
          <mxGeometry relative="1" as="geometry" />
        </mxCell>
        <mxCell id="cX_QqQjDj7oF1QqufWb9-5" value="1" style="ellipse;whiteSpace=wrap;html=1;" vertex="1" parent="1">
          <mxGeometry x="509" y="167" width="30" height="30" as="geometry" />
        </mxCell>
        <mxCell id="cX_QqQjDj7oF1QqufWb9-83" style="edgeStyle=none;rounded=0;orthogonalLoop=1;jettySize=auto;html=1;exitX=0.5;exitY=1;exitDx=0;exitDy=0;entryX=0.5;entryY=0;entryDx=0;entryDy=0;" edge="1" parent="1" target="cX_QqQjDj7oF1QqufWb9-75">
          <mxGeometry relative="1" as="geometry">
            <mxPoint x="433.9999999999998" y="297" as="sourcePoint" />
          </mxGeometry>
        </mxCell>
        <mxCell id="cX_QqQjDj7oF1QqufWb9-8" value="4" style="ellipse;whiteSpace=wrap;html=1;" vertex="1" parent="1">
          <mxGeometry x="419" y="277" width="30" height="30" as="geometry" />
        </mxCell>
        <mxCell id="cX_QqQjDj7oF1QqufWb9-145" style="edgeStyle=none;rounded=0;orthogonalLoop=1;jettySize=auto;html=1;exitX=0.5;exitY=1;exitDx=0;exitDy=0;entryX=0.5;entryY=0;entryDx=0;entryDy=0;" edge="1" parent="1" source="cX_QqQjDj7oF1QqufWb9-74" target="cX_QqQjDj7oF1QqufWb9-132">
          <mxGeometry relative="1" as="geometry">
            <mxPoint x="633" y="976.9999999999998" as="targetPoint" />
          </mxGeometry>
        </mxCell>
        <mxCell id="cX_QqQjDj7oF1QqufWb9-74" value="3" style="ellipse;whiteSpace=wrap;html=1;" vertex="1" parent="1">
          <mxGeometry x="603" y="277" width="30" height="30" as="geometry" />
        </mxCell>
        <mxCell id="cX_QqQjDj7oF1QqufWb9-84" style="edgeStyle=none;rounded=0;orthogonalLoop=1;jettySize=auto;html=1;exitX=0.5;exitY=1;exitDx=0;exitDy=0;entryX=0.5;entryY=0;entryDx=0;entryDy=0;" edge="1" parent="1" source="cX_QqQjDj7oF1QqufWb9-75" target="cX_QqQjDj7oF1QqufWb9-78">
          <mxGeometry relative="1" as="geometry" />
        </mxCell>
        <mxCell id="cX_QqQjDj7oF1QqufWb9-85" style="edgeStyle=none;rounded=0;orthogonalLoop=1;jettySize=auto;html=1;exitX=0.5;exitY=1;exitDx=0;exitDy=0;entryX=0.5;entryY=0;entryDx=0;entryDy=0;" edge="1" parent="1" source="cX_QqQjDj7oF1QqufWb9-75" target="cX_QqQjDj7oF1QqufWb9-76">
          <mxGeometry relative="1" as="geometry" />
        </mxCell>
        <mxCell id="cX_QqQjDj7oF1QqufWb9-75" value="5" style="ellipse;whiteSpace=wrap;html=1;" vertex="1" parent="1">
          <mxGeometry x="419" y="327" width="30" height="30" as="geometry" />
        </mxCell>
        <mxCell id="cX_QqQjDj7oF1QqufWb9-144" style="edgeStyle=none;rounded=0;orthogonalLoop=1;jettySize=auto;html=1;exitX=1;exitY=1;exitDx=0;exitDy=0;entryX=0.5;entryY=0;entryDx=0;entryDy=0;" edge="1" parent="1" source="cX_QqQjDj7oF1QqufWb9-76" target="cX_QqQjDj7oF1QqufWb9-132">
          <mxGeometry relative="1" as="geometry" />
        </mxCell>
        <mxCell id="cX_QqQjDj7oF1QqufWb9-76" value="6" style="ellipse;whiteSpace=wrap;html=1;" vertex="1" parent="1">
          <mxGeometry x="523" y="384" width="30" height="30" as="geometry" />
        </mxCell>
        <mxCell id="cX_QqQjDj7oF1QqufWb9-86" style="edgeStyle=none;rounded=0;orthogonalLoop=1;jettySize=auto;html=1;exitX=0.5;exitY=1;exitDx=0;exitDy=0;entryX=0.5;entryY=0;entryDx=0;entryDy=0;" edge="1" parent="1" source="cX_QqQjDj7oF1QqufWb9-78" target="cX_QqQjDj7oF1QqufWb9-79">
          <mxGeometry relative="1" as="geometry" />
        </mxCell>
        <mxCell id="cX_QqQjDj7oF1QqufWb9-78" value="7" style="ellipse;whiteSpace=wrap;html=1;" vertex="1" parent="1">
          <mxGeometry x="306" y="384" width="30" height="30" as="geometry" />
        </mxCell>
        <mxCell id="cX_QqQjDj7oF1QqufWb9-87" style="edgeStyle=none;rounded=0;orthogonalLoop=1;jettySize=auto;html=1;exitX=0.5;exitY=1;exitDx=0;exitDy=0;entryX=0.5;entryY=0;entryDx=0;entryDy=0;" edge="1" parent="1" source="cX_QqQjDj7oF1QqufWb9-79" target="cX_QqQjDj7oF1QqufWb9-80">
          <mxGeometry relative="1" as="geometry" />
        </mxCell>
        <mxCell id="cX_QqQjDj7oF1QqufWb9-79" value="8" style="ellipse;whiteSpace=wrap;html=1;" vertex="1" parent="1">
          <mxGeometry x="306" y="434" width="30" height="30" as="geometry" />
        </mxCell>
        <mxCell id="cX_QqQjDj7oF1QqufWb9-91" style="edgeStyle=none;rounded=0;orthogonalLoop=1;jettySize=auto;html=1;exitX=0.5;exitY=1;exitDx=0;exitDy=0;entryX=0.5;entryY=0;entryDx=0;entryDy=0;" edge="1" parent="1" source="cX_QqQjDj7oF1QqufWb9-80" target="cX_QqQjDj7oF1QqufWb9-82">
          <mxGeometry relative="1" as="geometry" />
        </mxCell>
        <mxCell id="cX_QqQjDj7oF1QqufWb9-95" style="edgeStyle=none;rounded=0;orthogonalLoop=1;jettySize=auto;html=1;entryX=0.5;entryY=0;entryDx=0;entryDy=0;exitX=0.5;exitY=1;exitDx=0;exitDy=0;" edge="1" parent="1" source="cX_QqQjDj7oF1QqufWb9-80" target="cX_QqQjDj7oF1QqufWb9-94">
          <mxGeometry relative="1" as="geometry">
            <mxPoint x="321" y="524" as="sourcePoint" />
          </mxGeometry>
        </mxCell>
        <mxCell id="cX_QqQjDj7oF1QqufWb9-80" value="9" style="ellipse;whiteSpace=wrap;html=1;" vertex="1" parent="1">
          <mxGeometry x="306" y="482" width="30" height="30" as="geometry" />
        </mxCell>
        <mxCell id="cX_QqQjDj7oF1QqufWb9-121" style="edgeStyle=none;rounded=0;orthogonalLoop=1;jettySize=auto;html=1;exitX=0.5;exitY=1;exitDx=0;exitDy=0;entryX=0.5;entryY=0;entryDx=0;entryDy=0;" edge="1" parent="1" source="cX_QqQjDj7oF1QqufWb9-82" target="cX_QqQjDj7oF1QqufWb9-110">
          <mxGeometry relative="1" as="geometry" />
        </mxCell>
        <mxCell id="cX_QqQjDj7oF1QqufWb9-82" value="17" style="ellipse;whiteSpace=wrap;html=1;" vertex="1" parent="1">
          <mxGeometry x="229" y="538" width="30" height="30" as="geometry" />
        </mxCell>
        <mxCell id="cX_QqQjDj7oF1QqufWb9-100" style="edgeStyle=none;rounded=0;orthogonalLoop=1;jettySize=auto;html=1;exitX=0.5;exitY=1;exitDx=0;exitDy=0;entryX=0.5;entryY=0;entryDx=0;entryDy=0;" edge="1" parent="1" source="cX_QqQjDj7oF1QqufWb9-94" target="cX_QqQjDj7oF1QqufWb9-99">
          <mxGeometry relative="1" as="geometry" />
        </mxCell>
        <mxCell id="cX_QqQjDj7oF1QqufWb9-131" style="edgeStyle=none;rounded=0;orthogonalLoop=1;jettySize=auto;html=1;exitX=0.5;exitY=1;exitDx=0;exitDy=0;entryX=0.5;entryY=0;entryDx=0;entryDy=0;" edge="1" parent="1" source="cX_QqQjDj7oF1QqufWb9-94" target="cX_QqQjDj7oF1QqufWb9-97">
          <mxGeometry relative="1" as="geometry" />
        </mxCell>
        <mxCell id="cX_QqQjDj7oF1QqufWb9-94" value="10" style="ellipse;whiteSpace=wrap;html=1;" vertex="1" parent="1">
          <mxGeometry x="393" y="538" width="30" height="30" as="geometry" />
        </mxCell>
        <mxCell id="cX_QqQjDj7oF1QqufWb9-143" style="edgeStyle=none;rounded=0;orthogonalLoop=1;jettySize=auto;html=1;exitX=1;exitY=1;exitDx=0;exitDy=0;entryX=0.5;entryY=0;entryDx=0;entryDy=0;" edge="1" parent="1" source="cX_QqQjDj7oF1QqufWb9-97" target="cX_QqQjDj7oF1QqufWb9-132">
          <mxGeometry relative="1" as="geometry" />
        </mxCell>
        <mxCell id="cX_QqQjDj7oF1QqufWb9-97" value="11" style="ellipse;whiteSpace=wrap;html=1;" vertex="1" parent="1">
          <mxGeometry x="423" y="595" width="30" height="30" as="geometry" />
        </mxCell>
        <mxCell id="cX_QqQjDj7oF1QqufWb9-126" style="edgeStyle=none;rounded=0;orthogonalLoop=1;jettySize=auto;html=1;exitX=0.5;exitY=1;exitDx=0;exitDy=0;entryX=0.5;entryY=0;entryDx=0;entryDy=0;" edge="1" parent="1" source="cX_QqQjDj7oF1QqufWb9-99" target="cX_QqQjDj7oF1QqufWb9-104">
          <mxGeometry relative="1" as="geometry" />
        </mxCell>
        <mxCell id="cX_QqQjDj7oF1QqufWb9-127" style="edgeStyle=none;rounded=0;orthogonalLoop=1;jettySize=auto;html=1;exitX=0.5;exitY=1;exitDx=0;exitDy=0;entryX=0.5;entryY=0;entryDx=0;entryDy=0;" edge="1" parent="1" source="cX_QqQjDj7oF1QqufWb9-99" target="cX_QqQjDj7oF1QqufWb9-101">
          <mxGeometry relative="1" as="geometry" />
        </mxCell>
        <mxCell id="cX_QqQjDj7oF1QqufWb9-99" value="12" style="ellipse;whiteSpace=wrap;html=1;" vertex="1" parent="1">
          <mxGeometry x="373" y="595" width="30" height="30" as="geometry" />
        </mxCell>
        <mxCell id="cX_QqQjDj7oF1QqufWb9-142" style="edgeStyle=none;rounded=0;orthogonalLoop=1;jettySize=auto;html=1;exitX=0.5;exitY=1;exitDx=0;exitDy=0;entryX=0.5;entryY=0;entryDx=0;entryDy=0;" edge="1" parent="1" source="cX_QqQjDj7oF1QqufWb9-101" target="cX_QqQjDj7oF1QqufWb9-132">
          <mxGeometry relative="1" as="geometry">
            <mxPoint x="613" y="965.9999999999998" as="targetPoint" />
          </mxGeometry>
        </mxCell>
        <mxCell id="cX_QqQjDj7oF1QqufWb9-101" value="13" style="ellipse;whiteSpace=wrap;html=1;" vertex="1" parent="1">
          <mxGeometry x="393" y="645" width="30" height="30" as="geometry" />
        </mxCell>
        <mxCell id="cX_QqQjDj7oF1QqufWb9-130" style="edgeStyle=none;rounded=0;orthogonalLoop=1;jettySize=auto;html=1;exitX=0.5;exitY=1;exitDx=0;exitDy=0;entryX=0.5;entryY=0;entryDx=0;entryDy=0;" edge="1" parent="1" source="cX_QqQjDj7oF1QqufWb9-104" target="cX_QqQjDj7oF1QqufWb9-106">
          <mxGeometry relative="1" as="geometry" />
        </mxCell>
        <mxCell id="cX_QqQjDj7oF1QqufWb9-104" value="14" style="ellipse;whiteSpace=wrap;html=1;" vertex="1" parent="1">
          <mxGeometry x="343" y="645" width="30" height="30" as="geometry" />
        </mxCell>
        <mxCell id="cX_QqQjDj7oF1QqufWb9-109" style="edgeStyle=none;rounded=0;orthogonalLoop=1;jettySize=auto;html=1;exitX=0.5;exitY=1;exitDx=0;exitDy=0;entryX=0.5;entryY=0;entryDx=0;entryDy=0;" edge="1" parent="1" source="cX_QqQjDj7oF1QqufWb9-106" target="cX_QqQjDj7oF1QqufWb9-107">
          <mxGeometry relative="1" as="geometry" />
        </mxCell>
        <mxCell id="cX_QqQjDj7oF1QqufWb9-106" value="15" style="ellipse;whiteSpace=wrap;html=1;" vertex="1" parent="1">
          <mxGeometry x="343" y="695" width="30" height="30" as="geometry" />
        </mxCell>
        <mxCell id="cX_QqQjDj7oF1QqufWb9-141" style="edgeStyle=none;rounded=0;orthogonalLoop=1;jettySize=auto;html=1;exitX=1;exitY=1;exitDx=0;exitDy=0;entryX=0.5;entryY=0;entryDx=0;entryDy=0;" edge="1" parent="1" source="cX_QqQjDj7oF1QqufWb9-107" target="cX_QqQjDj7oF1QqufWb9-132">
          <mxGeometry relative="1" as="geometry" />
        </mxCell>
        <mxCell id="cX_QqQjDj7oF1QqufWb9-107" value="16" style="ellipse;whiteSpace=wrap;html=1;" vertex="1" parent="1">
          <mxGeometry x="343" y="745" width="30" height="30" as="geometry" />
        </mxCell>
        <mxCell id="cX_QqQjDj7oF1QqufWb9-114" style="edgeStyle=none;rounded=0;orthogonalLoop=1;jettySize=auto;html=1;exitX=0.5;exitY=1;exitDx=0;exitDy=0;entryX=0.5;entryY=0;entryDx=0;entryDy=0;" edge="1" parent="1" source="cX_QqQjDj7oF1QqufWb9-110" target="cX_QqQjDj7oF1QqufWb9-111">
          <mxGeometry relative="1" as="geometry" />
        </mxCell>
        <mxCell id="cX_QqQjDj7oF1QqufWb9-118" style="edgeStyle=none;rounded=0;orthogonalLoop=1;jettySize=auto;html=1;exitX=0.5;exitY=1;exitDx=0;exitDy=0;entryX=0.5;entryY=0;entryDx=0;entryDy=0;" edge="1" parent="1" source="cX_QqQjDj7oF1QqufWb9-110" target="cX_QqQjDj7oF1QqufWb9-115">
          <mxGeometry relative="1" as="geometry" />
        </mxCell>
        <mxCell id="cX_QqQjDj7oF1QqufWb9-110" value="18" style="ellipse;whiteSpace=wrap;html=1;" vertex="1" parent="1">
          <mxGeometry x="229" y="595" width="30" height="30" as="geometry" />
        </mxCell>
        <mxCell id="cX_QqQjDj7oF1QqufWb9-139" style="edgeStyle=none;rounded=0;orthogonalLoop=1;jettySize=auto;html=1;exitX=1;exitY=1;exitDx=0;exitDy=0;entryX=0;entryY=0.5;entryDx=0;entryDy=0;" edge="1" parent="1" source="cX_QqQjDj7oF1QqufWb9-111" target="cX_QqQjDj7oF1QqufWb9-132">
          <mxGeometry relative="1" as="geometry">
            <mxPoint x="553" y="935.9999999999998" as="targetPoint" />
          </mxGeometry>
        </mxCell>
        <mxCell id="cX_QqQjDj7oF1QqufWb9-111" value="19" style="ellipse;whiteSpace=wrap;html=1;" vertex="1" parent="1">
          <mxGeometry x="259" y="645" width="30" height="30" as="geometry" />
        </mxCell>
        <mxCell id="cX_QqQjDj7oF1QqufWb9-119" style="edgeStyle=none;rounded=0;orthogonalLoop=1;jettySize=auto;html=1;exitX=0.5;exitY=1;exitDx=0;exitDy=0;entryX=0.5;entryY=0;entryDx=0;entryDy=0;" edge="1" parent="1" source="cX_QqQjDj7oF1QqufWb9-115" target="cX_QqQjDj7oF1QqufWb9-116">
          <mxGeometry relative="1" as="geometry" />
        </mxCell>
        <mxCell id="cX_QqQjDj7oF1QqufWb9-120" style="edgeStyle=none;rounded=0;orthogonalLoop=1;jettySize=auto;html=1;exitX=0.5;exitY=1;exitDx=0;exitDy=0;entryX=0.5;entryY=0;entryDx=0;entryDy=0;" edge="1" parent="1" source="cX_QqQjDj7oF1QqufWb9-115" target="cX_QqQjDj7oF1QqufWb9-117">
          <mxGeometry relative="1" as="geometry" />
        </mxCell>
        <mxCell id="cX_QqQjDj7oF1QqufWb9-115" value="20" style="ellipse;whiteSpace=wrap;html=1;" vertex="1" parent="1">
          <mxGeometry x="199" y="645" width="30" height="30" as="geometry" />
        </mxCell>
        <mxCell id="cX_QqQjDj7oF1QqufWb9-138" style="edgeStyle=none;rounded=0;orthogonalLoop=1;jettySize=auto;html=1;exitX=1;exitY=1;exitDx=0;exitDy=0;entryX=0;entryY=0.5;entryDx=0;entryDy=0;" edge="1" parent="1" source="cX_QqQjDj7oF1QqufWb9-116" target="cX_QqQjDj7oF1QqufWb9-132">
          <mxGeometry relative="1" as="geometry" />
        </mxCell>
        <mxCell id="cX_QqQjDj7oF1QqufWb9-116" value="21" style="ellipse;whiteSpace=wrap;html=1;" vertex="1" parent="1">
          <mxGeometry x="229" y="695" width="30" height="30" as="geometry" />
        </mxCell>
        <mxCell id="cX_QqQjDj7oF1QqufWb9-124" style="edgeStyle=none;rounded=0;orthogonalLoop=1;jettySize=auto;html=1;exitX=0.5;exitY=1;exitDx=0;exitDy=0;entryX=0.5;entryY=0;entryDx=0;entryDy=0;" edge="1" parent="1" source="cX_QqQjDj7oF1QqufWb9-117" target="cX_QqQjDj7oF1QqufWb9-122">
          <mxGeometry relative="1" as="geometry" />
        </mxCell>
        <mxCell id="cX_QqQjDj7oF1QqufWb9-117" value="22" style="ellipse;whiteSpace=wrap;html=1;" vertex="1" parent="1">
          <mxGeometry x="169" y="695" width="30" height="30" as="geometry" />
        </mxCell>
        <mxCell id="cX_QqQjDj7oF1QqufWb9-135" style="edgeStyle=none;rounded=0;orthogonalLoop=1;jettySize=auto;html=1;exitX=0.5;exitY=1;exitDx=0;exitDy=0;entryX=0;entryY=0.5;entryDx=0;entryDy=0;" edge="1" parent="1" source="cX_QqQjDj7oF1QqufWb9-122" target="cX_QqQjDj7oF1QqufWb9-132">
          <mxGeometry relative="1" as="geometry" />
        </mxCell>
        <mxCell id="cX_QqQjDj7oF1QqufWb9-122" value="23" style="ellipse;whiteSpace=wrap;html=1;" vertex="1" parent="1">
          <mxGeometry x="169" y="745" width="30" height="30" as="geometry" />
        </mxCell>
        <mxCell id="cX_QqQjDj7oF1QqufWb9-132" value="" style="ellipse;whiteSpace=wrap;html=1;fillColor=#0050ef;strokeColor=#001DBC;fontColor=#ffffff;" vertex="1" parent="1">
          <mxGeometry x="393" y="846" width="30" height="30" as="geometry" />
        </mxCell>
        <mxCell id="cX_QqQjDj7oF1QqufWb9-140" style="edgeStyle=none;rounded=0;orthogonalLoop=1;jettySize=auto;html=1;exitX=0.5;exitY=0;exitDx=0;exitDy=0;" edge="1" parent="1" source="cX_QqQjDj7oF1QqufWb9-132" target="cX_QqQjDj7oF1QqufWb9-132">
          <mxGeometry relative="1" as="geometry" />
        </mxCell>
      </root>
    </mxGraphModel>
  </diagram>
</mxfile>
